# xmcd
#
# Track frame offsets:
#	150
#	9226
#	29918
#	45044
#	62227
#	75803
#	91083
#	107335
#	125907
#	150464
#	159980
#	174537
#	187905
#	212080
#
# Disc length: 3019 seconds
#
# Revision: 0
# Processed by: cddbd v1.5.2PL0 Copyright (c) Steve Scherf et al.
# Submitted via: audiograbber 1.83.01
#
DISCID=9c0bc90e
DTITLE=Coral - Cantos da Semana Santa
DYEAR=1900
DGENRE=
TTITLE0=O Amor é a tua Lei
TTITLE1=Aclamação para a benção dos Ramos
TTITLE2=Salmo 21
TTITLE3=Nós nos Gloriamos
TTITLE4=O Cálice por nós abençoado
TTITLE5=Lava-pés
TTITLE6=É sangue o que era vinho
TTITLE7=Novo Mandamento
TTITLE8=Pai, em tuas mãos
TTITLE9=Apresentação da Santa Cruz
TTITLE10=Lamento do Senhor
TTITLE11=Afasta de nós este cálice
TTITLE12=Proclamação da Páscoa
TTITLE13=Ladainha de todos os Santos
EXTD=
EXTT0=
EXTT1=
EXTT2=
EXTT3=
EXTT4=
EXTT5=
EXTT6=
EXTT7=
EXTT8=
EXTT9=
EXTT10=
EXTT11=
EXTT12=
EXTT13=
PLAYORDER=
